<svg xmlns="http://www.w3.org/2000/svg" xml:space="preserve" style="enable-background:new 0 0 1200 1200" viewBox="0 0 1200 1200">
  <path d="M0 0h1200v1200H0z" fill="none"/>
  <path d="M906.809 694.648s28.72-57.637 16.832-153.063c-18.471-8.124-82.443-27.961-82.443-27.961L782.077 654.81l38.332 88.145 86.4-48.307zM581.96 787.215s52.907-67.348 94.961-115.258c-21.557-29.887-80.242-128.443-80.242-128.443s-124.526 29.394-139.146 30.919c-3.746 12.187-14.624 117.97-9.595 151.885 8.037 2.958 134.022 60.897 134.022 60.897zM363.674 500.674s18.42-72.327 68.94-121.213c-29.681-21.428-39.685-26.979-39.685-26.979S289.538 429.454 283.553 535.07c20.631-13.959 80.121-34.396 80.121-34.396zm37.874 349.118s-92.495-44.896-123.017-181.319c19.761 27.483 77.318 69.089 94.5 86.164 2.833 17.583 1.808 66.536 28.517 95.155zm383.648-439.063s5.088-72.123-6.453-94.376c-16.145-13.096-100.405-44.85-129.979-47.596-32.987 15.237-75.252 41.611-79.856 50.769 4.15.787 63.268 59.299 84.897 96.365 18.174-5.15 93.184-15.278 131.391-5.162zM744.005 882.44l4.579-37.088s-82.018 19.079-135.434 14.923c-5.584-.731-36.572 42.838-73.302 52.228-1.761 2.609 114.776 23.551 204.157-30.063z" fill="currentColor"/>
</svg>
